<?xml version="1.0" encoding="UTF-8" standalone="no"?>
<!-- Created with Inkscape (http://www.inkscape.org/) -->

<svg
   width="32.541145mm"
   height="25.824177mm"
   viewBox="0 0 32.541145 25.824177"
   version="1.1"
   id="svg5"
   xml:space="preserve"
   inkscape:version="1.2.2 (732a01da63, 2022-12-09)"
   sodipodi:docname="process_request.svg"
   xmlns:inkscape="http://www.inkscape.org/namespaces/inkscape"
   xmlns:sodipodi="http://sodipodi.sourceforge.net/DTD/sodipodi-0.dtd"
   xmlns="http://www.w3.org/2000/svg"
   xmlns:svg="http://www.w3.org/2000/svg"><sodipodi:namedview
     id="namedview7"
     pagecolor="#ffffff"
     bordercolor="#666666"
     borderopacity="1.0"
     inkscape:showpageshadow="2"
     inkscape:pageopacity="0.0"
     inkscape:pagecheckerboard="0"
     inkscape:deskcolor="#d1d1d1"
     inkscape:document-units="mm"
     showgrid="false"
     inkscape:zoom="2.3786088"
     inkscape:cx="169.84718"
     inkscape:cy="-68.317245"
     inkscape:window-width="2400"
     inkscape:window-height="1271"
     inkscape:window-x="2391"
     inkscape:window-y="-9"
     inkscape:window-maximized="1"
     inkscape:current-layer="layer1" /><defs
     id="defs2"><style
       id="style132">.cls-1{fill-rule:evenodd;}</style><clipPath
       clipPathUnits="userSpaceOnUse"
       id="clipEmfPath1"><path
         d="M 2.079892,3.3598255 H 59.196925 V 75.196094 H 2.079892 Z"
         id="path3080" /></clipPath><pattern
       id="EMFhbasepattern"
       patternUnits="userSpaceOnUse"
       width="6"
       height="6"
       x="0"
       y="0" /></defs><g
     inkscape:label="Layer 1"
     inkscape:groupmode="layer"
     id="layer1"
     transform="translate(-85.265934,-82.845411)"><path
       d="m 109.21348,99.995681 c -0.10318,-0.0714 -0.2196,-0.10319 -0.33866,-0.0794 -0.11906,0.0238 -0.21961,0.0873 -0.29104,0.187849 l -0.40217,0.56621 c -0.14288,-0.0635 -0.29104,-0.11113 -0.44979,-0.15081 -0.15875,-0.0397 -0.30692,-0.0714 -0.46567,-0.0953 l -0.127,-0.740839 c -0.0238,-0.127 -0.0873,-0.2196 -0.17992,-0.29104 -0.10318,-0.0714 -0.21166,-0.0953 -0.33866,-0.0714 l -0.92869,0.16669 c -0.11906,0.0238 -0.21167,0.0794 -0.29104,0.18256 -0.0714,0.10319 -0.10319,0.21167 -0.0794,0.338669 l 0.11906,0.67733 c -0.15081,0.0635 -0.29104,0.13494 -0.42598,0.2196 -0.13494,0.0794 -0.26723,0.17463 -0.38629,0.26723 l -0.6297,-0.43392 c -0.10319,-0.0714 -0.21167,-0.10318 -0.33073,-0.0794 -0.11906,0.0238 -0.21961,0.0873 -0.29104,0.1905 l -0.53711,0.76465 c -0.0714,0.10319 -0.10319,0.2196 -0.0794,0.33867 0.0238,0.127 0.0873,0.2196 0.1905,0.29104 l 0.56621,0.40217 c -0.0635,0.14287 -0.11112,0.29104 -0.15081,0.44979 -0.0397,0.15875 -0.0714,0.30691 -0.0953,0.46566 l -0.74083,0.127 c -0.12701,0.0238 -0.21961,0.0873 -0.29105,0.17992 -0.0714,0.10319 -0.0952,0.21167 -0.0714,0.33867 l 0.16669,0.92868 c 0.0238,0.11907 0.0794,0.21167 0.17992,0.29105 0.10319,0.0714 0.21166,0.10318 0.33866,0.0794 l 0.67734,-0.11906 c 0.0635,0.15082 0.13493,0.29105 0.2196,0.42598 0.0794,0.13494 0.17462,0.26723 0.26723,0.39423 l -0.43392,0.62177 c -0.0714,0.10319 -0.10319,0.21167 -0.0794,0.33073 0.0238,0.11906 0.0873,0.21961 0.18786,0.29104 l 0.77258,0.5424 c 0.10319,0.0714 0.2196,0.0952 0.33867,0.0714 0.11906,-0.0238 0.2196,-0.0794 0.29898,-0.17992 l 0.40216,-0.57414 c 0.14288,0.0635 0.29104,0.11112 0.44979,0.15081 0.15875,0.0397 0.30692,0.0714 0.46567,0.0952 l 0.127,0.74083 c 0.0238,0.127 0.0873,0.21961 0.17992,0.29104 0.10318,0.0714 0.21166,0.0953 0.33866,0.0714 l 0.92869,-0.16668 c 0.11906,-0.0238 0.21167,-0.0794 0.29104,-0.17992 0.0714,-0.10319 0.10319,-0.21167 0.0794,-0.33867 l -0.11906,-0.67733 c 0.15081,-0.0635 0.29104,-0.13494 0.42598,-0.2196 0.13494,-0.0794 0.26723,-0.17198 0.39423,-0.26723 l 0.62177,0.43391 c 0.10319,0.0714 0.21167,0.10319 0.33867,0.0794 0.127,-0.0238 0.2196,-0.0873 0.29104,-0.18785 l 0.54239,-0.77258 c 0.0714,-0.10319 0.0953,-0.21961 0.0714,-0.33867 -0.0238,-0.11906 -0.0794,-0.2196 -0.18256,-0.29898 l -0.57414,-0.39423 c 0.0635,-0.14287 0.11112,-0.29104 0.15081,-0.44979 0.0397,-0.15875 0.0714,-0.30692 0.0952,-0.46567 l 0.74083,-0.127 c 0.127,-0.0238 0.21961,-0.0873 0.29104,-0.18256 0.0714,-0.10319 0.0953,-0.21167 0.0714,-0.33867 l -0.16669,-0.92868 c -0.0238,-0.11907 -0.0794,-0.21167 -0.17991,-0.29105 -0.10319,-0.0714 -0.21167,-0.10318 -0.33867,-0.0794 l -0.67733,0.11907 c -0.0635,-0.14288 -0.13494,-0.28311 -0.21961,-0.42598 -0.0794,-0.14288 -0.17462,-0.26723 -0.26723,-0.38629 l 0.43392,-0.62971 c 0.0714,-0.10319 0.10319,-0.21167 0.0794,-0.33073 -0.0238,-0.11906 -0.0873,-0.21961 -0.18785,-0.29104 l -0.76465,-0.537109 z m 6.98765,-2.56382 -1.72508,0.0159 c -0.25136,0.003 -0.45509,-0.20109 -0.45773,-0.45244 -0.003,-0.25135 0.20108,-0.45508 0.44979,-0.45773 l 2.83897,-0.0291 h 0.003 0.0106 0.003 0.0106 0.003 0.0106 0.003 0.0106 0.003 0.0106 0.003 l 0.0106,0.003 h 0.003 l 0.0106,0.003 h 0.003 l 0.0106,0.003 h 0.003 l 0.008,0.003 h 0.003 l 0.008,0.003 h 0.003 l 0.008,0.003 h 0.003 l 0.008,0.003 h 0.003 l 0.008,0.003 h 0.003 l 0.008,0.003 h 0.003 l 0.008,0.003 h 0.003 l 0.008,0.003 h 0.003 l 0.008,0.003 h 0.003 l 0.008,0.003 h 0.003 l 0.008,0.005 h 0.003 l 0.008,0.005 h 0.003 l 0.008,0.005 h 0.003 l 0.008,0.005 h 0.003 l 0.008,0.005 h 0.003 l 0.008,0.005 h 0.003 l 0.008,0.005 h 0.003 l 0.008,0.005 h 0.003 l 0.008,0.005 h 0.003 l 0.008,0.005 h 0.003 l 0.008,0.005 h 0.003 l 0.008,0.005 h 0.003 l 0.008,0.005 0.003,0.003 0.005,0.005 0.003,0.003 0.005,0.005 v 0 l 0.005,0.005 v 0.003 l 0.005,0.008 v 0.003 l 0.005,0.008 v 0.003 l 0.005,0.008 v 0.003 l 0.005,0.008 v 0.003 l 0.005,0.008 v 0.003 l 0.005,0.008 v 0.003 l 0.005,0.008 v 0.003 l 0.005,0.008 v 0.003 l 0.005,0.008 v 0.003 l 0.005,0.008 v 0.003 l 0.005,0.008 v 0.003 l 0.005,0.008 v 0.003 l 0.005,0.008 v 0.003 l 0.003,0.008 v 0.003 l 0.003,0.008 v 0.003 l 0.003,0.008 0.003,0.008 v 0.003 0.003 l 0.003,0.008 v 0.003 l 0.003,0.008 v 0.003 l 0.003,0.008 v 0.003 l 0.003,0.008 v 0.003 l 0.003,0.008 v 0.003 l 0.003,0.0106 v 0.003 l 0.003,0.0106 v 0.003 l 0.003,0.0106 v 0.003 l 0.003,0.0106 v 0.0106 0.003 0.0106 0.003 0.0106 0.003 0.0106 0.003 l 0.0132,2.93423 c 0,0.251349 -0.20108,0.455079 -0.45243,0.457729 -0.25136,0 -0.45509,-0.20108 -0.45509,-0.452439 l -0.008,-1.8415 -1.66687,1.66688 c -0.17727,0.17727 -0.46831,0.17727 -0.64558,0 -0.17727,-0.17727 -0.17727,-0.46832 0,-0.64559 z m -15.6845,-13.66573 -1.725076,0.0159 c -0.25136,0.003 -0.45509,-0.20108 -0.45773,-0.44979 -0.003,-0.25136 0.20108,-0.45509 0.45244,-0.45773 l 2.838966,-0.0291 h 0.003 0.0106 0.003 0.0106 0.003 0.0106 0.003 0.0106 0.003 0.0106 0.003 l 0.0106,0.003 h 0.003 l 0.0106,0.003 h 0.003 l 0.0106,0.003 h 0.003 l 0.008,0.003 h 0.003 l 0.008,0.003 h 0.003 l 0.008,0.003 h 0.003 l 0.008,0.003 h 0.003 l 0.008,0.003 h 0.003 l 0.008,0.003 h 0.003 l 0.008,0.003 h 0.003 l 0.008,0.003 h 0.003 l 0.008,0.003 h 0.003 l 0.008,0.003 h 0.003 l 0.008,0.005 h 0.003 l 0.008,0.005 h 0.003 l 0.008,0.005 h 0.003 l 0.008,0.005 h 0.003 l 0.008,0.005 h 0.003 l 0.008,0.005 h 0.003 l 0.008,0.005 h 0.003 l 0.008,0.005 h 0.003 l 0.008,0.005 h 0.003 l 0.008,0.005 h 0.003 l 0.008,0.005 h 0.003 l 0.008,0.005 h 0.003 l 0.008,0.005 0.003,0.003 0.005,0.005 0.003,0.003 0.005,0.005 v 0.003 l 0.005,0.005 v 0.003 l 0.005,0.008 v 0.003 l 0.005,0.008 v 0.003 l 0.005,0.008 v 0.003 l 0.005,0.008 v 0.003 l 0.005,0.008 v 0.003 l 0.005,0.008 v 0.003 l 0.005,0.008 v 0.003 l 0.005,0.008 v 0.003 l 0.005,0.008 v 0.003 l 0.005,0.008 v 0.003 l 0.005,0.008 v 0.003 l 0.005,0.008 v 0.003 l -0.0185,0.008 v 0.003 l 0.003,0.008 v 0.003 l 0.003,0.008 v 0.003 l 0.003,0.008 0.003,0.008 v 0.003 0.003 l 0.003,0.008 v 0.003 l 0.003,0.008 v 0.003 l 0.003,0.008 v 0.003 l 0.003,0.008 v 0.003 l 0.003,0.0106 v 0.003 l 0.003,0.0106 v 0.003 l 0.003,0.0106 v 0.003 l 0.003,0.0106 v 0.003 0.0106 0.0106 0.003 0.0106 0.003 0.0106 0.003 0.0106 0.003 l 0.0132,2.93423 c 0,0.25136 -0.20109,0.45509 -0.45244,0.45509 -0.25135,0 -0.45508,-0.20109 -0.45508,-0.45244 l -0.008,-1.8415 -1.666876,1.66687 c -0.17727,0.17727 -0.46831,0.17727 -0.64558,0 -0.17727,-0.17727 -0.17727,-0.46831 0,-0.64558 z m 10.54365,3.77825 -3.2094,0.0317 c -0.37571,0.003 -0.68262,-0.29898 -0.68527,-0.67468 -0.003,-0.37571 0.29898,-0.68263 0.67469,-0.68527 l 4.87627,-0.0476 h 0.003 0.0159 0.003 0.0159 0.003 0.0159 0.003 0.0159 0.003 l 0.0132,0.003 h 0.003 l 0.0132,0.003 h 0.003 l 0.0132,0.003 h 0.003 l 0.0132,0.003 h 0.003 l 0.0132,0.003 h 0.003 l 0.0132,0.003 h 0.003 l 0.0132,0.003 h 0.003 l 0.0132,0.003 h 0.003 l 0.0132,0.005 h 0.003 l 0.0132,0.005 h 0.003 l 0.0132,0.005 h 0.003 l 0.0132,0.005 h 0.003 l 0.0132,0.005 h 0.003 l 0.0132,0.005 h 0.003 l 0.0132,0.005 h 0.003 l 0.0132,0.005 0.003,0.003 0.0132,0.005 0.003,0.003 0.0106,0.008 0.003,0.003 0.0106,0.008 0.003,0.003 0.0106,0.008 0.003,0.003 0.0106,0.008 0.003,0.003 0.0106,0.008 0.003,0.003 0.0106,0.008 0.003,0.003 0.0106,0.008 0.003,0.003 0.0106,0.008 0.003,0.003 0.0106,0.008 0.003,0.003 0.0106,0.008 0.003,0.003 0.0106,0.0106 0.003,0.003 0.0106,0.0106 0.003,0.003 0.0106,0.0106 0.003,0.003 0.008,0.0106 0.003,0.003 0.008,0.0106 0.003,0.003 0.008,0.0106 0.003,0.003 0.008,0.0106 0.003,0.003 0.008,0.0106 0.003,0.003 0.008,0.0106 0.003,0.003 0.008,0.0106 0.003,0.003 0.008,0.0106 0.003,0.003 0.008,0.0106 v 0.003 l 0.008,0.0132 v 0.003 l 0.008,0.0132 0.005,0.0132 v 0.003 l 0.005,0.0132 v 0.003 l 0.005,0.0132 v 0.003 l 0.005,0.0132 v 0.003 l 0.005,0.0132 v 0.003 l 0.005,0.0132 v 0.003 l 0.005,0.0132 v 0.003 l 0.005,0.0132 v 0.003 l 0.003,0.0132 v 0.003 l 0.003,0.0132 v 0.003 l 0.003,0.0132 v 0.003 l 0.003,0.0159 0.003,0.0132 v 0.003 l 0.003,0.0132 v 0.003 l 0.003,0.0132 v 0.003 l 0.003,0.0159 v 0.003 0.0159 0.003 0.0185 0.0159 0.003 l 0.0212,4.94506 c 0.003,0.37571 -0.30163,0.67998 -0.67733,0.68263 -0.37571,0.003 -0.67998,-0.30163 -0.68263,-0.67733 l -0.0132,-3.30994 -4.72017,4.71223 c -0.26722,0.26723 -0.6985,0.26723 -0.96572,0 -0.26723,-0.26723 -0.26723,-0.6985 0,-0.96573 z m -4.55084,14.642049 c 0.24342,-0.0397 0.48948,-0.0397 0.7329,0.0159 0.23548,0.0556 0.44979,0.15081 0.64558,0.2831 0.18786,0.13494 0.35454,0.30692 0.48948,0.51329 0.13494,0.20373 0.21961,0.43392 0.25929,0.67733 0.0397,0.24342 0.0397,0.48948 -0.0159,0.7329 -0.0556,0.23548 -0.15081,0.44979 -0.2831,0.64558 -0.13494,0.18786 -0.30692,0.35455 -0.51329,0.48948 -0.20373,0.13494 -0.43392,0.21961 -0.67734,0.25929 -0.24341,0.0397 -0.48948,0.0397 -0.73289,-0.0159 -0.23548,-0.0556 -0.44979,-0.15081 -0.64559,-0.2831 -0.18785,-0.13494 -0.35454,-0.30692 -0.48947,-0.51329 -0.13494,-0.20373 -0.21961,-0.43392 -0.2593,-0.67733 -0.0397,-0.24342 -0.0397,-0.48948 0.0159,-0.7329 0.0556,-0.23548 0.15082,-0.44979 0.28311,-0.64558 0.13494,-0.18786 0.30691,-0.35455 0.51329,-0.48948 0.20637,-0.13229 0.43392,-0.21961 0.67733,-0.25929 z M 99.355114,91.140071 c -0.0397,-0.0397 -0.0714,-0.0635 -0.11113,-0.0794 -0.0317,-0.0159 -0.0714,-0.0238 -0.11906,-0.0238 -0.0476,0 -0.0873,0.008 -0.11906,0.0238 -0.0318,0.0159 -0.0714,0.0397 -0.10319,0.0714 l -0.008,0.008 -0.89164,0.89165 c -0.17463,0.17463 -0.44979,0.19579 -0.64559,0.0556 -0.10318,-0.0635 -0.20373,-0.127 -0.32279,-0.18785 -0.127,-0.0635 -0.24341,-0.127 -0.35454,-0.18256 -0.11906,-0.0556 -0.24342,-0.11113 -0.37042,-0.15875 -0.11116,-0.0397 -0.23551,-0.0873 -0.38633,-0.13494 -0.21166,-0.0714 -0.3466,-0.26723 -0.3466,-0.48155 v -1.3626 c 0,-0.0476 -0.008,-0.0953 -0.0238,-0.127 -0.0159,-0.0317 -0.0397,-0.0714 -0.0714,-0.0952 -0.0318,-0.0318 -0.0635,-0.0556 -0.0953,-0.0714 -0.0318,-0.0159 -0.0794,-0.0238 -0.127,-0.0238 h -1.71185 c -0.0476,0 -0.0873,0.008 -0.11907,0.0159 -0.0317,0.0159 -0.0714,0.0397 -0.11112,0.0794 -0.0317,0.0317 -0.0556,0.0635 -0.0635,0.0952 -0.0159,0.0317 -0.0238,0.0794 -0.0238,0.127 v 1.25412 c 0,0.25136 -0.18257,0.45773 -0.41805,0.50536 -0.13493,0.0317 -0.25929,0.0635 -0.37041,0.0953 -0.127,0.0397 -0.24342,0.0794 -0.37042,0.127 -0.11906,0.0476 -0.24342,0.0952 -0.36248,0.15875 -0.127,0.0556 -0.23548,0.11906 -0.3466,0.17462 -0.20373,0.11113 -0.44186,0.0714 -0.59796,-0.0873 l -0.98425,-0.97631 c -0.008,-0.008 -0.008,-0.008 -0.008,-0.0159 -0.0318,-0.0318 -0.0635,-0.0556 -0.0953,-0.0714 -0.0317,-0.0159 -0.0635,-0.0159 -0.11113,-0.0159 -0.0476,0 -0.0873,0.008 -0.11906,0.0238 -0.0397,0.0159 -0.0714,0.0397 -0.11112,0.0794 l -1.19857,1.2065 c -0.0397,0.0397 -0.0635,0.0714 -0.0794,0.11112 -0.0159,0.0317 -0.0238,0.0714 -0.0238,0.11907 0,0.0476 0.008,0.0873 0.0238,0.11906 0.0159,0.0317 0.0397,0.0714 0.0714,0.10319 v 0.008 l 0.89164,0.89165 c 0.17198,0.17198 0.19579,0.44979 0.0556,0.64558 -0.0635,0.10319 -0.127,0.20373 -0.18786,0.32279 -0.0635,0.127 -0.127,0.24342 -0.18256,0.35455 -0.0556,0.11906 -0.11113,0.24341 -0.15875,0.37041 -0.0397,0.11113 -0.0873,0.23548 -0.13494,0.38629 -0.0714,0.21167 -0.26723,0.34661 -0.48154,0.34661 h -1.35731 c -0.0476,0 -0.0952,0.008 -0.127,0.0238 -0.0318,0.0159 -0.0635,0.0397 -0.0953,0.0635 -0.0317,0.0318 -0.0556,0.0635 -0.0635,0.0953 -0.0159,0.0317 -0.0238,0.0794 -0.0238,0.127 v 1.71714 c 0,0.0476 0.008,0.0873 0.0159,0.11907 0.0159,0.0317 0.0397,0.0714 0.0794,0.11112 0.0317,0.0317 0.0635,0.0556 0.0952,0.0635 0.0317,0.0159 0.0794,0.0238 0.127,0.0238 h 1.25412 c 0.25136,0 0.45773,0.17992 0.50536,0.41804 0.0318,0.13494 0.0635,0.2593 0.0953,0.36248 0.0397,0.127 0.0794,0.25136 0.127,0.37836 0.0476,0.11906 0.0953,0.24341 0.15875,0.37041 0.0635,0.13494 0.11906,0.25136 0.17462,0.362479 0.10319,0.20373 0.0635,0.44186 -0.0952,0.59002 l -0.97631,0.96838 -0.0132,-0.005 c -0.0317,0.0317 -0.0556,0.0635 -0.0714,0.0952 -0.0159,0.0318 -0.0159,0.0635 -0.0159,0.11112 0,0.0476 0.008,0.0873 0.0238,0.11907 0.0159,0.0397 0.0397,0.0794 0.0794,0.11112 l 1.19063,1.2065 c 0.0317,0.0317 0.0714,0.0556 0.11112,0.0714 0.0397,0.0159 0.0794,0.0238 0.127,0.0238 0.0476,0 0.0952,-0.008 0.13494,-0.0238 0.0318,-0.0159 0.0714,-0.0397 0.10319,-0.0635 l 0.88371,-0.89957 c 0.17462,-0.18256 0.44979,-0.19579 0.64558,-0.0635 0.10319,0.0635 0.20373,0.127 0.32279,0.18785 0.127,0.0635 0.24342,0.127 0.35454,0.17992 0.11907,0.0556 0.24342,0.11112 0.37042,0.15875 0.11113,0.0397 0.23548,0.0873 0.38629,0.13494 0.21167,0.0714 0.34661,0.26723 0.34661,0.48154 v 1.3626 c 0,0.0476 0.008,0.0952 0.0238,0.127 0.0159,0.0318 0.0397,0.0714 0.0635,0.0953 0.0635,0.0635 0.13494,0.0873 0.22754,0.0873 h 1.71715 c 0.0476,0 0.0873,-0.008 0.11906,-0.0159 0.0318,-0.0159 0.0714,-0.0397 0.11112,-0.0794 0.0318,-0.0317 0.0556,-0.0635 0.0635,-0.0952 0.0159,-0.0317 0.0238,-0.0794 0.0238,-0.127 v -1.25412 c 0,-0.25136 0.18256,-0.45773 0.41804,-0.50536 0.13494,-0.0317 0.25929,-0.0635 0.37042,-0.0953 0.127,-0.0397 0.24341,-0.0794 0.37041,-0.127 0.11907,-0.0476 0.24342,-0.0952 0.37042,-0.15875 0.13494,-0.0635 0.25135,-0.11906 0.36248,-0.17462 0.20373,-0.10319 0.44185,-0.0635 0.59002,0.0952 l 0.96837,0.97631 0.008,0.008 c 0.0317,0.0317 0.0635,0.0556 0.0952,0.0714 0.0318,0.0159 0.0714,0.0159 0.11907,0.0159 0.0476,0 0.0873,-0.008 0.11906,-0.0238 0.0318,-0.0159 0.0635,-0.0397 0.0953,-0.0714 0.008,-0.008 0.0159,-0.0159 0.0238,-0.0159 l 1.198556,-1.18269 c 0.0318,-0.0317 0.0556,-0.0714 0.0714,-0.11112 0.0159,-0.0397 0.0238,-0.0794 0.0238,-0.127 0,-0.0476 -0.008,-0.0953 -0.0238,-0.13494 -0.0159,-0.0317 -0.0397,-0.0714 -0.0635,-0.10319 l -0.899576,-0.88371 c -0.18256,-0.17197 -0.19579,-0.44979 -0.0635,-0.64558 0.0635,-0.10319 0.127,-0.20373 0.18785,-0.32279 0.0635,-0.126999 0.127,-0.243419 0.18257,-0.354539 0.0556,-0.11906 0.11112,-0.24342 0.15875,-0.37042 0.0397,-0.11112 0.0873,-0.23548 0.13493,-0.38629 0.0714,-0.21167 0.267226,-0.3466 0.481536,-0.3466 h 1.36261 c 0.0476,0 0.0952,-0.008 0.127,-0.0238 0.0318,-0.0159 0.0714,-0.0397 0.0952,-0.0635 0.0635,-0.0635 0.0873,-0.13494 0.0873,-0.22755 v -1.71711 c 0,-0.0476 -0.008,-0.0873 -0.0159,-0.11906 -0.0159,-0.0317 -0.0397,-0.0714 -0.0794,-0.11112 -0.0318,-0.0317 -0.0635,-0.0556 -0.0953,-0.0635 -0.0318,-0.0159 -0.0794,-0.0238 -0.127,-0.0238 h -1.25413 c -0.25135,0 -0.46566,-0.18786 -0.50535,-0.42598 -0.0318,-0.11113 -0.0635,-0.22755 -0.0953,-0.34661 -0.0397,-0.11906 -0.0794,-0.24341 -0.13494,-0.37835 0,-0.008 -0.008,-0.0159 -0.008,-0.0238 -0.0476,-0.127 -0.0953,-0.23548 -0.14287,-0.34661 -0.0556,-0.11906 -0.11113,-0.23548 -0.17463,-0.3466 -0.11112,-0.20373 -0.0714,-0.44186 0.0873,-0.59796 l 0.97631,-0.98425 c 0,-0.008 0.008,-0.008 0.0159,-0.008 0.0318,-0.0317 0.0556,-0.0635 0.0714,-0.0953 0.0159,-0.0317 0.0159,-0.0635 0.0159,-0.11112 0,-0.0476 -0.008,-0.0873 -0.0238,-0.11907 -0.0159,-0.0397 -0.0397,-0.0714 -0.0794,-0.11112 l -1.2065,-1.19856 z m 0.2831,-1.01864 c 0.16669,0.0714 0.30692,0.16668 0.433916,0.29104 l 1.2065,1.19856 h 0.008 c 0.127,0.127 0.2196,0.26723 0.29104,0.42598 0.0714,0.16669 0.10319,0.33073 0.10319,0.51329 0,0.17992 -0.0397,0.35454 -0.10319,0.51329 -0.0714,0.15875 -0.16669,0.29898 -0.29898,0.41804 l -0.70904,0.71702 c 0.008,0.0238 0.0238,0.0476 0.0317,0.0714 0.0635,0.13494 0.11906,0.27517 0.17198,0.41011 0,0.008 0.008,0.0159 0.008,0.0238 0.0556,0.13494 0.10318,0.2831 0.15081,0.44185 l 0.0159,0.0556 h 0.86783 c 0.17992,0 0.35454,0.0317 0.51329,0.10319 0.15875,0.0635 0.29898,0.16669 0.42598,0.29104 l 0.008,0.008 c 0.127,0.127 0.21961,0.26723 0.28311,0.42598 0.0635,0.15875 0.10318,0.33073 0.10318,0.50536 v 1.71714 c 0,0.37042 -0.127,0.68527 -0.38629,0.94456 -0.127,0.127 -0.27516,0.22755 -0.43391,0.29105 -0.15875,0.0635 -0.33073,0.0953 -0.5133,0.0953 h -1.00806 c -0.008,0.0238 -0.0238,0.0556 -0.0318,0.0794 -0.0556,0.14287 -0.11906,0.2831 -0.17992,0.425969 -0.0714,0.15082 -0.13493,0.29105 -0.20372,0.41805 l -0.0238,0.0476 0.61383,0.60589 0.0238,0.0238 c 0.127,0.127 0.21167,0.27517 0.27517,0.43392 0.0635,0.15875 0.0953,0.32279 0.0953,0.50535 0,0.17463 -0.0318,0.33867 -0.0953,0.49742 -0.0635,0.15875 -0.15082,0.29898 -0.27517,0.43392 l -0.0159,0.0159 -1.206496,1.19856 c -0.127,0.13494 -0.26723,0.22754 -0.42598,0.29898 -0.15875,0.0714 -0.33073,0.10318 -0.52123,0.10318 -0.17992,0 -0.35454,-0.0397 -0.52123,-0.10318 -0.16669,-0.0714 -0.30692,-0.17463 -0.42598,-0.29898 l -0.70114,-0.70909 c -0.0238,0.0159 -0.0476,0.0238 -0.0794,0.0317 -0.13494,0.0556 -0.27517,0.11907 -0.42598,0.17463 -0.14288,0.0556 -0.29104,0.10319 -0.44186,0.15081 -0.0238,0.008 -0.0397,0.0159 -0.0635,0.0159 v 0.8599 c 0,0.17991 -0.0318,0.35454 -0.10318,0.51329 -0.0635,0.15875 -0.16669,0.29898 -0.29105,0.42598 l -0.008,0.008 c -0.127,0.127 -0.26722,0.2196 -0.42597,0.2831 -0.15875,0.0635 -0.33073,0.10319 -0.50536,0.10319 h -1.71711 c -0.37042,0 -0.68527,-0.127 -0.94456,-0.38629 -0.127,-0.127 -0.22755,-0.27517 -0.29105,-0.43392 -0.0635,-0.15875 -0.0953,-0.33073 -0.0953,-0.51329 v -1.00806 c -0.0238,-0.008 -0.0556,-0.0238 -0.0794,-0.0318 -0.14288,-0.0555 -0.28311,-0.11899 -0.42598,-0.18249 -0.15081,-0.0714 -0.29104,-0.13494 -0.41804,-0.20373 l -0.0476,-0.0238 -0.60589,0.61384 -0.0238,0.0238 c -0.127,0.127 -0.27516,0.21166 -0.43391,0.27516 -0.15875,0.0635 -0.32279,0.0953 -0.50536,0.0953 -0.17462,0 -0.33866,-0.0317 -0.49741,-0.0953 -0.15875,-0.0635 -0.29898,-0.15081 -0.43392,-0.27516 l -0.0159,-0.0159 -1.2065,-1.22238 c -0.127,-0.127 -0.21961,-0.26723 -0.29105,-0.42598 -0.0714,-0.16668 -0.10318,-0.33072 -0.10318,-0.51328 0,-0.18256 0.0397,-0.35454 0.10318,-0.51329 0.0714,-0.15875 0.17463,-0.29898 0.29898,-0.42598 l 0.70909,-0.70115 c -0.0159,-0.0238 -0.0238,-0.0476 -0.0318,-0.0794 -0.0556,-0.134929 -0.11907,-0.275159 -0.17463,-0.425979 -0.0556,-0.15081 -0.11112,-0.29104 -0.15081,-0.44185 l -0.0159,-0.0635 h -0.84931 c -0.18256,0 -0.35454,-0.0317 -0.51329,-0.10319 -0.15875,-0.0635 -0.29898,-0.16669 -0.42598,-0.29104 l -0.008,-0.008 c -0.127,-0.127 -0.2196,-0.26723 -0.2831,-0.42598 -0.0609,-0.16408 -0.10054,-0.33606 -0.10054,-0.51069 v -1.71714 c 0,-0.17992 0.0318,-0.34661 0.0952,-0.51329 0.0635,-0.15875 0.16668,-0.29898 0.29104,-0.43392 0.127,-0.127 0.27517,-0.22754 0.43392,-0.29104 0.15875,-0.0635 0.33072,-0.0952 0.51329,-0.0952 h 1.00806 c 0.008,-0.0238 0.0238,-0.0556 0.0317,-0.0794 0.0556,-0.14288 0.11906,-0.28311 0.17992,-0.42598 0.0714,-0.15081 0.13493,-0.29104 0.20373,-0.41804 l 0.0238,-0.0476 -0.6059,-0.61384 c -0.127,-0.127 -0.22754,-0.26723 -0.29104,-0.43391 -0.0714,-0.16669 -0.10319,-0.33867 -0.10319,-0.5133 0,-0.17991 0.0317,-0.3466 0.10319,-0.51329 0.0714,-0.16668 0.16669,-0.30691 0.29104,-0.43391 l 1.19856,-1.2065 v -0.008 c 0.127,-0.127 0.26723,-0.21961 0.42598,-0.29105 0.16669,-0.0714 0.33073,-0.10318 0.5133,-0.10318 0.18256,0 0.35454,0.0397 0.51329,0.10318 0.15875,0.0714 0.29898,0.16669 0.41804,0.29898 l 0.71702,0.70909 c 0.0238,-0.008 0.0476,-0.0238 0.0635,-0.0317 0.13494,-0.0635 0.27517,-0.11907 0.42598,-0.17992 0.14287,-0.0556 0.29104,-0.10319 0.44185,-0.15081 0.0238,-0.008 0.0397,-0.0159 0.0635,-0.0159 v -0.85989 c 0,-0.18256 0.0318,-0.35454 0.10319,-0.51329 0.0635,-0.15875 0.16669,-0.29898 0.29104,-0.42598 l 0.008,-0.008 c 0.127,-0.127 0.26723,-0.21961 0.42598,-0.28311 0.15875,-0.0635 0.33073,-0.10318 0.50536,-0.10318 h 1.71714 c 0.17992,0 0.34661,0.0317 0.51329,0.0953 0.16669,0.0635 0.30692,0.16668 0.43392,0.29104 0.127,0.127 0.22754,0.27517 0.29104,0.43392 0.0635,0.15875 0.0952,0.33072 0.0952,0.51329 v 1.00806 c 0.0238,0.008 0.0556,0.0238 0.0794,0.0317 0.14288,0.0556 0.28311,0.11906 0.42598,0.18256 0.15081,0.0714 0.29104,0.13494 0.41804,0.20373 l 0.0476,0.0238 0.61384,-0.60589 c 0.127,-0.127 0.26723,-0.22754 0.43391,-0.29104 0.16669,-0.0714 0.33867,-0.10319 0.51329,-0.10319 0.18257,0 0.34661,0.0317 0.5133,0.10319 v 0.0212 z m -5.44512,3.19352 c 0.25929,0 0.52123,0.0238 0.77258,0.0794 0.24342,0.0476 0.48948,0.127 0.7329,0.22754 0.22754,0.10319 0.44979,0.2196 0.65352,0.35454 0.20373,0.13494 0.39423,0.29104 0.56621,0.46567 0.17462,0.17462 0.33073,0.36248 0.46566,0.57414 0.14288,0.20373 0.2593,0.42598 0.35455,0.65352 0.008,0.0159 0.008,0.0317 0.0159,0.0397 0.0952,0.22754 0.16668,0.46567 0.21166,0.69321 0.0476,0.25135 0.0794,0.51329 0.0794,0.77258 0,0.2593 -0.0238,0.52123 -0.0794,0.77259 -0.0476,0.24341 -0.127,0.48948 -0.22754,0.73289 -0.10319,0.22754 -0.2196,0.44979 -0.35454,0.65352 -0.14288,0.20373 -0.29104,0.39423 -0.46567,0.57415 -0.17462,0.174619 -0.36248,0.330729 -0.57414,0.465669 -0.20373,0.14287 -0.42598,0.25929 -0.65352,0.35454 -0.0159,0.008 -0.0318,0.008 -0.0397,0.0159 -0.22755,0.0952 -0.46567,0.16669 -0.69321,0.21166 -0.25136,0.0476 -0.51329,0.0794 -0.77259,0.0794 -0.25929,0 -0.52123,-0.0238 -0.77258,-0.0794 -0.24342,-0.0476 -0.48948,-0.12701 -0.7329,-0.22755 -0.22754,-0.10319 -0.44979,-0.2196 -0.65352,-0.35454 -0.20373,-0.13494 -0.39423,-0.29104 -0.56621,-0.465669 -0.17462,-0.17462 -0.33073,-0.36248 -0.46566,-0.57414 -0.14288,-0.20373 -0.2593,-0.42598 -0.35455,-0.65352 -0.008,-0.0159 -0.008,-0.0317 -0.0159,-0.0397 -0.0952,-0.22754 -0.16669,-0.46567 -0.21167,-0.69321 -0.0476,-0.25135 -0.0794,-0.51329 -0.0794,-0.77258 0,-0.25929 0.0238,-0.52123 0.0794,-0.77259 0.0476,-0.24341 0.127,-0.48948 0.22754,-0.73289 0.10319,-0.22754 0.21961,-0.44979 0.35455,-0.65352 0.13493,-0.20373 0.29104,-0.39423 0.46566,-0.57415 0.17198,-0.17198 0.36248,-0.33073 0.56621,-0.46567 0.20373,-0.14287 0.42598,-0.25929 0.65352,-0.35454 0.0159,-0.008 0.0318,-0.008 0.0397,-0.0159 0.22754,-0.0953 0.46567,-0.16668 0.69321,-0.21166 0.25135,-0.0476 0.51329,-0.0794 0.77258,-0.0794 z m 0.57679,1.07156 c -0.17992,-0.0397 -0.37835,-0.0556 -0.57415,-0.0556 -0.19579,0 -0.38629,0.0159 -0.57414,0.0556 -0.17992,0.0397 -0.34661,0.0873 -0.50536,0.15081 -0.008,0.008 -0.0159,0.008 -0.0318,0.0159 -0.17991,0.0794 -0.3466,0.16669 -0.49741,0.26723 -0.15081,0.10319 -0.29104,0.21167 -0.41804,0.33867 -0.127,0.127 -0.24342,0.26723 -0.33867,0.41804 -0.10319,0.15081 -0.18785,0.31485 -0.26723,0.49742 -0.0714,0.16668 -0.127,0.3466 -0.16669,0.5371 -0.0397,0.17992 -0.0556,0.37835 -0.0556,0.57415 0,0.19579 0.0159,0.38629 0.0556,0.57414 0.0397,0.17992 0.0873,0.34661 0.15082,0.50536 0.008,0.008 0.008,0.0159 0.0159,0.0317 0.0794,0.18256 0.16669,0.3466 0.26723,0.49741 0.10319,0.15081 0.21167,0.29104 0.33867,0.41804 0.127,0.127 0.26723,0.24342 0.41804,0.33867 0.15081,0.10319 0.31485,0.18785 0.49741,0.26723 0.16669,0.0714 0.34661,0.127 0.53711,0.16669 0.17992,0.0397 0.37835,0.0556 0.57414,0.0556 0.1958,0 0.3863,-0.0159 0.57415,-0.0556 0.18256,-0.0397 0.3466,-0.0873 0.50535,-0.15082 0.008,-0.008 0.0159,-0.008 0.0318,-0.0159 0.17992,-0.0794 0.34661,-0.16668 0.49742,-0.26722 0.15081,-0.10319 0.29104,-0.21167 0.41804,-0.33867 0.127,-0.127 0.24342,-0.26723 0.33867,-0.41804 0.10319,-0.15082 0.18785,-0.31486 0.26723,-0.49742 0.0714,-0.16669 0.127,-0.3466 0.16669,-0.5371 0.0397,-0.18257 0.0556,-0.37836 0.0556,-0.57415 0,-0.19579 -0.0159,-0.38629 -0.0556,-0.57415 -0.0397,-0.17991 -0.0873,-0.3466 -0.15082,-0.50535 -0.008,-0.008 -0.008,-0.0159 -0.0159,-0.0317 -0.0794,-0.18256 -0.16668,-0.3466 -0.26723,-0.49742 -0.10318,-0.15081 -0.21166,-0.29104 -0.33866,-0.41804 -0.127,-0.127 -0.26723,-0.24341 -0.41804,-0.33866 -0.15082,-0.10319 -0.31486,-0.18786 -0.49742,-0.26723 -0.16669,-0.0741 -0.34925,-0.127 -0.5371,-0.16669 z"
       id="path1840"
       style="fill:#808080;fill-opacity:1;stroke-width:0.264583" /></g></svg>
